#tb 0: 1/25
0,          0,          0,        1,    38016, 0x3ae838ee
0,          1,          1,        1,    38016, 0x9ed7e141
0,          2,          2,        1,    38016, 0x393097f9
0,          3,          3,        1,    38016, 0x8fb56676
0,          4,          4,        1,    38016, 0x39d64fd2
0,          5,          5,        1,    38016, 0x7fad729a
0,          6,          6,        1,    38016, 0x7e25955f
0,          7,          7,        1,    38016, 0xc4d9a359
0,          8,          8,        1,    38016, 0x30afaca4
0,          9,          9,        1,    38016, 0x9ee195ea
0,         10,         10,        1,    38016, 0x09f65805
0,         11,         11,        1,    38016, 0x58d126ab
0,         12,         12,        1,    38016, 0x4f29282c
0,         13,         13,        1,    38016, 0x8af235a1
0,         14,         14,        1,    38016, 0x6dfe525a
0,         15,         15,        1,    38016, 0xd51c793f
0,         16,         16,        1,    38016, 0x4e90abba
0,         17,         17,        1,    38016, 0xe706c5b7
0,         18,         18,        1,    38016, 0x35fab7ef
0,         19,         19,        1,    38016, 0xed78b8fc
0,         20,         20,        1,    38016, 0x2907bb4e
0,         21,         21,        1,    38016, 0x1749bb47
0,         22,         22,        1,    38016, 0x284ec688
0,         23,         23,        1,    38016, 0x534abc24
0,         24,         24,        1,    38016, 0xcd01bd13
0,         25,         25,        1,    38016, 0xe97bbd51
0,         26,         26,        1,    38016, 0xac1cb9e9
0,         27,         27,        1,    38016, 0xd861c0a3
0,         28,         28,        1,    38016, 0xf0f1ced4
0,         29,         29,        1,    38016, 0xa9e8d2bf
0,         30,         30,        1,    38016, 0x4c6aa7c5
0,         31,         31,        1,    38016, 0xb20079ac
0,         32,         32,        1,    38016, 0xbfc3563b
0,         33,         33,        1,    38016, 0x48259358
0,         34,         34,        1,    38016, 0x1bce0434
0,         35,         35,        1,    38016, 0xa0ac59db
0,         36,         36,        1,    38016, 0x87bdb608
0,         37,         37,        1,    38016, 0x318037eb
0,         38,         38,        1,    38016, 0x0f7d8496
0,         39,         39,        1,    38016, 0x9e65bc1e
0,         40,         40,        1,    38016, 0xc56be1ea
0,         41,         41,        1,    38016, 0xc31fefb7
0,         42,         42,        1,    38016, 0xcbcee4e4
0,         43,         43,        1,    38016, 0xcf03f238
0,         44,         44,        1,    38016, 0xc6a903a1
0,         45,         45,        1,    38016, 0xfdabee4f
0,         46,         46,        1,    38016, 0x9054bb39
0,         47,         47,        1,    38016, 0xe9bf8cd8
0,         48,         48,        1,    38016, 0x943d9e0a
0,         49,         49,        1,    38016, 0x404cc87d
0,         50,         50,        1,    38016, 0x3cd9dd49
0,         51,         51,        1,    38016, 0x5eabbdf1
0,         52,         52,        1,    38016, 0xd206d9ef
0,         53,         53,        1,    38016, 0x75e310ad
0,         54,         54,        1,    38016, 0x01893e25
0,         55,         55,        1,    38016, 0xda5360e6
0,         56,         56,        1,    38016, 0x80656a39
0,         57,         57,        1,    38016, 0x85452c84
0,         58,         58,        1,    38016, 0x48d92ef7
0,         59,         59,        1,    38016, 0x0edc45b2
0,         60,         60,        1,    38016, 0xeb8a3531
0,         61,         61,        1,    38016, 0x7b5914b5
0,         62,         62,        1,    38016, 0xf1b6c7fa
0,         63,         63,        1,    38016, 0x68fca853
0,         64,         64,        1,    38016, 0x68ebcc02
0,         65,         65,        1,    38016, 0x793edc8e
0,         66,         66,        1,    38016, 0x9c86d139
0,         67,         67,        1,    38016, 0x2aeed2f9
0,         68,         68,        1,    38016, 0xb8cfc89d
0,         69,         69,        1,    38016, 0x22d2b5c4
0,         70,         70,        1,    38016, 0x01ae9d2d
0,         71,         71,        1,    38016, 0x4e9b7c84
0,         72,         72,        1,    38016, 0xa52c8553
0,         73,         73,        1,    38016, 0x50df78d0
0,         74,         74,        1,    38016, 0x4dc31f1c
0,         75,         75,        1,    38016, 0xf24ee29a
0,         76,         76,        1,    38016, 0xced0d363
0,         77,         77,        1,    38016, 0x2263bfdc
0,         78,         78,        1,    38016, 0x1363f580
0,         79,         79,        1,    38016, 0xfc7f3a50
0,         80,         80,        1,    38016, 0x38427007
0,         81,         81,        1,    38016, 0xfc5757eb
0,         82,         82,        1,    38016, 0xf20f4d0b
0,         83,         83,        1,    38016, 0x64871ca3
0,         84,         84,        1,    38016, 0xcb66cd99
0,         85,         85,        1,    38016, 0xaacdda1f
0,         86,         86,        1,    38016, 0xd52206c8
0,         87,         87,        1,    38016, 0xcb461142
0,         88,         88,        1,    38016, 0x9e36a3b3
0,         89,         89,        1,    38016, 0xf3b44a7c
0,         90,         90,        1,    38016, 0x1722db32
0,         91,         91,        1,    38016, 0xa943d602
0,         92,         92,        1,    38016, 0xc899e7bf
0,         93,         93,        1,    38016, 0xacd10bdc
0,         94,         94,        1,    38016, 0x703b3802
0,         95,         95,        1,    38016, 0xe246efb4
0,         96,         96,        1,    38016, 0x1ebfccb2
0,         97,         97,        1,    38016, 0x57380778
0,         98,         98,        1,    38016, 0xb70e7313
0,         99,         99,        1,    38016, 0x0cd4af3d
